<svg id="Layer_1" data-name="Layer 1" xmlns="http://www.w3.org/2000/svg" viewBox="0 0 500 180"><title>ZAML-logo</title><path d="M132.27,162.53,182.46,35.88h10.68L242.7,162.53h-9.83L216.64,122H158.11l-16.23,40.58Zm81.16-48.7L187.38,45.7l-26.7,68.13Z"/><path d="M404.81,35.88h8.54V154.42h68.14v8.12H404.81Z"/><circle cx="91" cy="44.5" r="4"/><path d="M115.47,35.5h-5a54.66,54.66,0,0,0-1-10.36c-1.07-4.28-6.09-10.34-6.3-10.6l-1.5-1.8-5.3,11.14-1-2c-2.21-4.43-10.89-7.42-11.87-7.75l-2.19-.73L83.4,35.5H36v0c-7.77.27-14,11.14-14,19s6.23,9.71,14,10v0H89.75L22.31,154.42v8.12h92.32l4.23.11S121,159.5,121,153.5s-3.4-15-12.5-15c-6.78,0-14.5,5-23.5,7S60,147.3,54.63,147c5.75-5.44,12.61-12,19.66-19H92.56l.42-.37c1-.87,24.31-21.36,30.37-34.5s7.1-54.83,7.14-56.59l0-1.59ZM49.84,147.41c-3.23-.24-7.53-.76-9.84-1.91a10.79,10.79,0,0,1-4.46-3.93l9.58-12.91,22.46,1.73C61.06,136.77,54.88,142.66,49.84,147.41ZM95,63.5s-1.76-7.52-1-10c1-3.4,7.94-10.83,12-15h8.53c0,.53,0,1.17,0,1.9l-.1.41C109,43.74,97.93,51.53,97,53.5S96.52,61,99.31,64.66c-1.35-.1-2.72-.27-4-.44l-.09-.06A4.8,4.8,0,0,0,95,63.5ZM109,76a79.27,79.27,0,0,1-9,2.49c-5,1-13,0-13,0l3-8s11,0,15-1a22.68,22.68,0,0,0,6.55-3.2C110.86,69.46,110,72.72,109,76ZM100,55.5c1.27-4.12,11.13-10.58,14.13-12.46l.28,1.1c-.09,2-.25,4.37-.5,7-4.19,1.21-7.81,2.49-8.57,3.26-1.53,1.54-2.77,6.17-1.83,10.35a22.78,22.78,0,0,1-2.67,0C100.42,62.8,99.38,57.51,100,55.5Zm12.46,6.2a52.93,52.93,0,0,1-7,2.68c.39-2.42,1.09-5.83,2-7.11s3.41-2.62,6.16-3.69C113.36,56.12,113,58.85,112.46,61.7ZM93.9,103.48l-2.23,2.41c-2.73.33-7.34.94-10.66,1.61-5,1-14-1-14-1l5-7s10,2,15,2a46.82,46.82,0,0,0,9.79-1.43Q95.42,101.83,93.9,103.48Zm-18,18.63c-2.09.61-8.46,2.39-10.95,2.39-3,0-11-2-11-2l6-7s10,1,14,1c2.58,0,7.21-1.62,10.2-2.77C81.48,116.53,78.72,119.34,75.95,122.11Zm20.16-16.6.2-.23v0l13.94,1c-1.5,1.69-3,3.36-4.58,5L92.86,109C94,107.83,95,106.67,96.1,105.52Zm3.83-4.64c.83-1.11,1.63-2.24,2.39-3.39l15.58-.87a80.42,80.42,0,0,1-5,6.6Zm2.14-8.73c-2.72.92-7.36,2.36-10.07,2.36-4,0-14-2-14-2l4-7s12,1,17,0a29.42,29.42,0,0,0,7.62-2.87A78.48,78.48,0,0,1,102.07,92.14Zm8.3-10.92,13.49-1.45c-.29,1.68-.6,3.27-.94,4.76L109,84.78Q109.71,83,110.37,81.23Zm1.71-5q.37-1.21.71-2.4l12.31-2.66c-.18,1.52-.38,3-.59,4.49Zm13.51-9.45-11.44,1.84q.49-2.1.88-4.1l11-2.33C125.89,63.65,125.75,65.19,125.59,66.73Zm.8-9-10.45,1.6c.27-1.72.49-3.39.68-5L126.78,52C126.67,53.82,126.54,55.73,126.39,57.69Zm.64-10-9.91,1.46c.11-1.41.2-2.73.26-3.94l9.86-1.83C127.19,44.71,127.12,46.16,127,47.72Zm.35-7.55-9.85,1.1c0-.86,0-1.62,0-2.27l.54-2.71,9.36,1.76C127.44,38.62,127.41,39.35,127.38,40.17ZM103,22.5c1.6,2.16,2.45,2.8,3,5a38,38,0,0,1,1.48,7.5L95,34.5Zm-16-1c2.86,1.2,5.92,2.84,7,5l.57,1.12L91.15,34.8,86.36,35Zm-14.15,40c2.93-3.55,7-9.51,6.15-11s-9.88-8.63-14.57-12h5c3.95,2.86,15,11.13,16.6,15,.66,1.62-2.73,5.58-5,8Zm-8.69,0c2.51-3.93,6.93-11.56,5.59-14.49-1.2-2.61-7.5-6.27-11.75-8.51h4.38C65.77,41,74.46,47.72,76,51.5c.7,1.73-3,7.1-5.09,10ZM58.29,44.86c-1.17-2.24-4.34-4.68-6.84-6.36h5c3.41,2.86,9.22,8,9.44,10s-1.62,9.22-2.66,13H53.83C55.92,57,59.82,47.78,58.29,44.86ZM49.73,38.5c1.57,2.07,3.73,5.17,4,6.9.34,2.07-.46,11.5-.89,16.1H44.16c2.25-4,6.89-12.79,5.84-16a25.41,25.41,0,0,0-4.36-7ZM38,38.5h6.64c1.16,2.25,2.5,5.21,2.5,6.8,0,2.17-2.5,11.94-3.61,16.2H38a33,33,0,0,0,2-11A43.6,43.6,0,0,0,38,38.5Zm45.1,23c3.13-3,7.22-8,6.58-9.11-1.23-2.1-11.76-9.83-18.09-13.89h33.72C100.81,42.24,93.63,48.44,92.43,51c-1.05,2.24-1.78,8.57,1.36,12.27L91,61.5ZM91.43,125H77.3c3.76-3.75,7.52-7.58,11.15-11.36l13.63,1.29C97.09,119.91,92.76,123.82,91.43,125Zm28.4-31.54-14.58-.89q.75-1.37,1.44-2.76l15.15-1.15a26.58,26.58,0,0,1-1.19,3.21C120.4,92.39,120.12,92.92,119.83,93.46Z"/><rect x="255" y="36.5" width="14.69" height="15" rx="1.5" ry="1.5"/><rect x="258.07" y="55.56" width="8.54" height="106.97"/><polygon points="364.01 35.88 317.88 151.85 274.33 42.9 274.33 64.8 313.82 162.53 321.72 162.53 368.93 45.7 368.93 162.53 377.47 162.53 377.47 35.88 364.01 35.88"/></svg>